<mxfile host="app.diagrams.net" modified="2024-07-10T14:32:45.508Z" agent="Mozilla/5.0 (X11; Linux x86_64; rv:127.0) Gecko/20100101 Firefox/127.0" etag="F9MA4f6Q8d6yt6IOYkOM" version="24.6.4" type="github">
  <diagram name="Generative Modeling" id="2twwRFYKnPh-EqDGWzVh">
    <mxGraphModel dx="2074" dy="1107" grid="1" gridSize="10" guides="1" tooltips="1" connect="1" arrows="1" fold="1" page="1" pageScale="1" pageWidth="850" pageHeight="1100" math="0" shadow="0">
      <root>
        <mxCell id="0" />
        <mxCell id="1" parent="0" />
      </root>
    </mxGraphModel>
  </diagram>
</mxfile>
